<mxfile host="app.diagrams.net" modified="2022-11-21T19:21:47.521Z" agent="5.0 (Macintosh; Intel Mac OS X 10_15_7) AppleWebKit/537.36 (KHTML, like Gecko) Chrome/107.0.0.0 Safari/537.36" etag="r8FHl4l-lzhiiKfCd0g7" version="20.5.3" type="github">
  <diagram id="Xc8Yjj6azaGJ4WsaZWN7" name="Page-1">
    <mxGraphModel dx="2066" dy="1129" grid="0" gridSize="10" guides="1" tooltips="1" connect="1" arrows="1" fold="1" page="0" pageScale="1" pageWidth="827" pageHeight="1169" math="0" shadow="0">
      <root>
        <mxCell id="0" />
        <mxCell id="1" parent="0" />
        <mxCell id="DGbzUcABZT3o_mQJXWC4-3" value="" style="edgeStyle=orthogonalEdgeStyle;rounded=0;orthogonalLoop=1;jettySize=auto;html=1;" parent="1" source="DGbzUcABZT3o_mQJXWC4-1" target="DGbzUcABZT3o_mQJXWC4-2" edge="1">
          <mxGeometry relative="1" as="geometry" />
        </mxCell>
        <mxCell id="DGbzUcABZT3o_mQJXWC4-7" value="" style="edgeStyle=orthogonalEdgeStyle;rounded=0;orthogonalLoop=1;jettySize=auto;html=1;" parent="1" source="DGbzUcABZT3o_mQJXWC4-1" target="DGbzUcABZT3o_mQJXWC4-6" edge="1">
          <mxGeometry relative="1" as="geometry" />
        </mxCell>
        <mxCell id="DGbzUcABZT3o_mQJXWC4-1" value="cassandra:9042" style="rounded=1;whiteSpace=wrap;html=1;" parent="1" vertex="1">
          <mxGeometry x="352" y="546" width="120" height="60" as="geometry" />
        </mxCell>
        <mxCell id="DGbzUcABZT3o_mQJXWC4-9" value="" style="edgeStyle=orthogonalEdgeStyle;rounded=0;orthogonalLoop=1;jettySize=auto;html=1;" parent="1" source="DGbzUcABZT3o_mQJXWC4-2" target="DGbzUcABZT3o_mQJXWC4-8" edge="1">
          <mxGeometry relative="1" as="geometry" />
        </mxCell>
        <mxCell id="DGbzUcABZT3o_mQJXWC4-2" value="authN/Z:3000" style="rounded=1;whiteSpace=wrap;html=1;" parent="1" vertex="1">
          <mxGeometry x="352" y="406" width="120" height="60" as="geometry" />
        </mxCell>
        <mxCell id="DGbzUcABZT3o_mQJXWC4-4" value="localstack:4566-4584" style="rounded=1;whiteSpace=wrap;html=1;" parent="1" vertex="1">
          <mxGeometry x="552" y="546" width="120" height="60" as="geometry" />
        </mxCell>
        <mxCell id="DGbzUcABZT3o_mQJXWC4-6" value="kong:8000-8001" style="rounded=1;whiteSpace=wrap;html=1;" parent="1" vertex="1">
          <mxGeometry x="152" y="546" width="120" height="60" as="geometry" />
        </mxCell>
        <mxCell id="DGbzUcABZT3o_mQJXWC4-11" value="" style="edgeStyle=orthogonalEdgeStyle;rounded=0;orthogonalLoop=1;jettySize=auto;html=1;" parent="1" source="DGbzUcABZT3o_mQJXWC4-8" target="DGbzUcABZT3o_mQJXWC4-10" edge="1">
          <mxGeometry relative="1" as="geometry" />
        </mxCell>
        <mxCell id="DGbzUcABZT3o_mQJXWC4-8" value="deployment:8080" style="rounded=1;whiteSpace=wrap;html=1;" parent="1" vertex="1">
          <mxGeometry x="352" y="266" width="120" height="60" as="geometry" />
        </mxCell>
        <mxCell id="DGbzUcABZT3o_mQJXWC4-10" value="UI:4200" style="rounded=1;whiteSpace=wrap;html=1;" parent="1" vertex="1">
          <mxGeometry x="352" y="126" width="120" height="60" as="geometry" />
        </mxCell>
        <mxCell id="DGbzUcABZT3o_mQJXWC4-13" style="edgeStyle=orthogonalEdgeStyle;rounded=0;orthogonalLoop=1;jettySize=auto;html=1;exitX=0.5;exitY=0;exitDx=0;exitDy=0;entryX=0.75;entryY=1;entryDx=0;entryDy=0;" parent="1" source="DGbzUcABZT3o_mQJXWC4-12" target="DGbzUcABZT3o_mQJXWC4-10" edge="1">
          <mxGeometry relative="1" as="geometry" />
        </mxCell>
        <mxCell id="DGbzUcABZT3o_mQJXWC4-12" value="notification:3004" style="rounded=1;whiteSpace=wrap;html=1;" parent="1" vertex="1">
          <mxGeometry x="598" y="266" width="120" height="60" as="geometry" />
        </mxCell>
      </root>
    </mxGraphModel>
  </diagram>
</mxfile>
